<svg width="22" height="18" viewBox="0 0 22 18" fill="none" xmlns="http://www.w3.org/2000/svg">
<path d="M22 9C22 11.3869 20.8411 13.6761 18.7782 15.364C16.7153 17.0518 13.9174 18 11 18C8.08262 18 5.28473 17.0518 3.22183 15.364C1.15893 13.6761 0 11.3869 0 9C0 6.61305 1.15893 4.32387 3.22183 2.63604C5.28473 0.948215 8.08262 0 11 0C13.9174 0 16.7153 0.948215 18.7782 2.63604C20.8411 4.32387 22 6.61305 22 9V9ZM13.7415 2.24307C14.4354 3.22615 14.96 4.2923 15.3323 5.39999H18.7C17.5619 3.90496 15.81 2.79065 13.7585 2.25693L13.7415 2.24307ZM8.79999 5.39999H13.2C12.7116 4.10983 11.9685 2.89375 11 1.79998C10.0315 2.89375 9.28837 4.10983 8.79999 5.39999V5.39999ZM6.04155 10.8C5.85874 9.60464 5.85874 8.39536 6.04155 7.20002H2.48769C2.12934 8.38211 2.12934 9.61789 2.48769 10.8H6.04155ZM8.24153 15.7431C7.55952 14.7529 7.03085 13.6971 6.6677 12.6H3.29999C4.43921 14.0942 6.19073 15.2083 8.24153 15.7431ZM8.24153 2.24307C6.1881 2.78138 4.43621 3.90058 3.29999 5.39999H6.68461C7.03999 4.2923 7.56462 3.24001 8.25847 2.25693L8.24153 2.24307ZM13.2 12.6H8.79999C9.30769 13.9015 10.0523 15.1062 11 16.2C11.9477 15.1062 12.6923 13.9015 13.2 12.6V12.6ZM13.7415 9C13.7415 8.39077 13.6739 7.7954 13.5723 7.20002H8.42769C8.21543 8.39373 8.21543 9.60627 8.42769 10.8H13.5723C13.6739 10.2046 13.7415 9.60923 13.7415 9ZM18.7 12.6H15.3154C14.96 13.7077 14.4354 14.76 13.7415 15.7431C15.7972 15.209 17.5544 14.0952 18.7 12.6ZM19.5123 10.8C19.8812 9.61896 19.8812 8.38104 19.5123 7.20002H15.9584C16.1413 8.39536 16.1413 9.60464 15.9584 10.8H19.5123Z" fill="white"/>
</svg>
